<svg width="320" height="240" viewBox="0 0 320 240" fill="none" xmlns="http://www.w3.org/2000/svg">
<rect width="320" height="240" fill="#B1D34B"/>
<g clip-path="url(#clip0_73_2)">
<path d="M43 76C34.7783 76 26.8933 72.7339 21.0797 66.9203C15.2661 61.1067 12 53.2217 12 45C12 36.7783 15.2661 28.8933 21.0797 23.0797C26.8933 17.2661 34.7783 14 43 14C51.2217 14 59.1067 17.2661 64.9203 23.0797C70.7339 28.8933 74 36.7783 74 45C74 53.2217 70.7339 61.1067 64.9203 66.9203C59.1067 72.7339 51.2217 76 43 76ZM43 69.8C49.5774 69.8 55.8853 67.1871 60.5362 62.5362C65.1871 57.8853 67.8 51.5774 67.8 45C67.8 38.4226 65.1871 32.1147 60.5362 27.4638C55.8853 22.8128 49.5774 20.2 43 20.2C36.4226 20.2 30.1147 22.8128 25.4638 27.4638C20.8128 32.1147 18.2 38.4226 18.2 45C18.2 51.5774 20.8128 57.8853 25.4638 62.5362C30.1147 67.1871 36.4226 69.8 43 69.8ZM39.9 46.271V26.4H46.1V43.729L58.345 55.974L53.974 60.345L39.9 46.271Z" fill="white"/>
</g>
<defs>
<clipPath id="clip0_73_2">
<rect width="62" height="62" fill="white" transform="translate(12 14)"/>
</clipPath>
</defs>
</svg>
