<svg width="1280" height="720" viewBox="0 0 1280 720" fill="none" xmlns="http://www.w3.org/2000/svg">
<g clip-path="url(#clip0_1_3)">
<rect width="1280" height="720" fill="#DCDBDB" fill-opacity="0.45"/>
<rect x="102" width="1178" height="177" fill="#00995D"/>
<rect width="102" height="720" fill="#B1D34B" fill-opacity="0.85"/>
<g filter="url(#filter0_d_1_3)">
<rect x="532" y="37" width="188" height="182" rx="18" fill="white"/>
<g clip-path="url(#clip1_1_3)">
<path d="M565 91C559.696 91 554.609 88.8929 550.858 85.1421C547.107 81.3914 545 76.3043 545 71C545 65.6957 547.107 60.6086 550.858 56.8579C554.609 53.1071 559.696 51 565 51C570.304 51 575.391 53.1071 579.142 56.8579C582.893 60.6086 585 65.6957 585 71C585 76.3043 582.893 81.3914 579.142 85.1421C575.391 88.8929 570.304 91 565 91ZM565 87C569.243 87 573.313 85.3143 576.314 82.3137C579.314 79.3131 581 75.2435 581 71C581 66.7565 579.314 62.6869 576.314 59.6863C573.313 56.6857 569.243 55 565 55C560.757 55 556.687 56.6857 553.686 59.6863C550.686 62.6869 549 66.7565 549 71C549 75.2435 550.686 79.3131 553.686 82.3137C556.687 85.3143 560.757 87 565 87ZM563 71.82V59H567V70.18L574.9 78.08L572.08 80.9L563 71.82Z" fill="#00995D"/>
</g>
</g>
<g filter="url(#filter1_d_1_3)">
<rect x="327" y="37" width="188" height="182" rx="18" fill="white"/>
<path fill-rule="evenodd" clip-rule="evenodd" d="M355.382 56.001L351.07 67.184L355.644 91.984L368.317 91.998L372.931 67.202L368.637 56.012L355.382 56.001ZM370.011 54.013L354.01 54L349 66.992L353.978 93.982L369.978 94L375 67.013L370.011 54.013Z" fill="#00995D"/>
<path fill-rule="evenodd" clip-rule="evenodd" d="M361 67.997V76H363V67.997H366V65.997H363V63H361V65.997H358V67.997H361Z" fill="#00995D"/>
</g>
<g filter="url(#filter2_d_1_3)">
<rect x="122" y="37" width="188" height="182" rx="18" fill="white"/>
<path d="M162 58.25C162 57.7859 161.816 57.3408 161.487 57.0126C161.159 56.6844 160.714 56.5 160.25 56.5H149.75C149.286 56.5 148.841 56.6844 148.513 57.0126C148.184 57.3408 148 57.7859 148 58.25V67H139.25C138.786 67 138.341 67.1844 138.013 67.5126C137.684 67.8408 137.5 68.2859 137.5 68.75V79.25C137.5 79.7141 137.684 80.1592 138.013 80.4874C138.341 80.8156 138.786 81 139.25 81H148V89.75C148 90.2141 148.184 90.6592 148.513 90.9874C148.841 91.3156 149.286 91.5 149.75 91.5H160.25C160.714 91.5 161.159 91.3156 161.487 90.9874C161.816 90.6592 162 90.2141 162 89.75V81H170.75C171.214 81 171.659 80.8156 171.987 80.4874C172.316 80.1592 172.5 79.7141 172.5 79.25V68.75C172.5 68.2859 172.316 67.8408 171.987 67.5126C171.659 67.1844 171.214 67 170.75 67H162V58.25Z" stroke="#00995D" stroke-width="2" stroke-linecap="round" stroke-linejoin="round"/>
</g>
<path d="M40.3333 250.333V239C40.3333 237.889 40.7227 236.945 41.5013 236.168C42.28 235.391 43.224 235.002 44.3333 235C45.4427 234.998 46.3876 235.388 47.168 236.168C47.9484 236.948 48.3369 237.892 48.3333 239V250.333C48.3333 251.444 47.9449 252.389 47.168 253.168C46.3911 253.947 45.4462 254.335 44.3333 254.333C43.2204 254.332 42.2764 253.943 41.5013 253.168C40.7262 252.393 40.3369 251.448 40.3333 250.333ZM53.6667 249.733V228.333C53.6667 227.222 54.056 226.278 54.8347 225.501C55.6133 224.724 56.5573 224.335 57.6667 224.333C58.776 224.332 59.7209 224.721 60.5013 225.501C61.2818 226.282 61.6702 227.226 61.6667 228.333V249.733C61.6667 251.067 61.256 252.067 60.4347 252.733C59.6133 253.4 58.6907 253.733 57.6667 253.733C56.6427 253.733 55.7209 253.4 54.9013 252.733C54.0818 252.067 53.6702 251.067 53.6667 249.733ZM27 258.933V249.667C27 248.556 27.3893 247.612 28.168 246.835C28.9467 246.058 29.8907 245.668 31 245.667C32.1093 245.665 33.0542 246.054 33.8347 246.835C34.6151 247.615 35.0036 248.559 35 249.667V258.933C35 260.267 34.5893 261.267 33.768 261.933C32.9467 262.6 32.024 262.933 31 262.933C29.976 262.933 29.0542 262.6 28.2347 261.933C27.4151 261.267 27.0036 260.267 27 258.933ZM33.4 275.133C32.2444 275.133 31.4329 274.589 30.9653 273.501C30.4978 272.413 30.6871 271.446 31.5333 270.6L42.4667 259.667C42.9556 259.178 43.5449 258.911 44.2347 258.867C44.9244 258.822 45.5351 259.044 46.0667 259.533L53.6667 266.067L68.6 251.133H67C66.2444 251.133 65.6116 250.877 65.1013 250.365C64.5911 249.853 64.3351 249.22 64.3333 248.467C64.3316 247.713 64.5876 247.08 65.1013 246.568C65.6151 246.056 66.248 245.8 67 245.8H75C75.7556 245.8 76.3893 246.056 76.9013 246.568C77.4133 247.08 77.6684 247.713 77.6667 248.467V256.467C77.6667 257.222 77.4107 257.856 76.8987 258.368C76.3867 258.88 75.7538 259.135 75 259.133C74.2462 259.132 73.6133 258.876 73.1013 258.365C72.5893 257.855 72.3333 257.222 72.3333 256.467V254.867L55.6667 271.533C55.1778 272.022 54.5884 272.289 53.8987 272.333C53.2089 272.378 52.5982 272.156 52.0667 271.667L44.4667 265.133L35.2667 274.333C35.0444 274.556 34.7671 274.745 34.4347 274.901C34.1022 275.058 33.7573 275.135 33.4 275.133Z" fill="white"/>
<rect y="306" width="102" height="75" fill="#00995D"/>
<path d="M61.6875 331.375H53.9375V323.625H50.0625V331.375H42.3125V335.25H50.0625V343H53.9375V335.25H61.6875V331.375Z" fill="white"/>
<path d="M75.25 331.375H71.375V319.75C71.375 318.722 70.9667 317.737 70.24 317.01C69.5133 316.283 68.5277 315.875 67.5 315.875H36.5C35.4723 315.875 34.4867 316.283 33.76 317.01C33.0333 317.737 32.625 318.722 32.625 319.75V331.375H28.75C27.7223 331.375 26.7367 331.783 26.01 332.51C25.2833 333.237 24.875 334.222 24.875 335.25V370.125H79.125V335.25C79.125 334.222 78.7167 333.237 77.99 332.51C77.2633 331.783 76.2777 331.375 75.25 331.375ZM48.125 366.25V354.625H55.875V366.25H48.125ZM59.75 366.25V352.688C59.75 352.174 59.5459 351.681 59.1825 351.317C58.8192 350.954 58.3264 350.75 57.8125 350.75H46.1875C45.6736 350.75 45.1808 350.954 44.8175 351.317C44.4541 351.681 44.25 352.174 44.25 352.688V366.25H28.75V335.25H36.5V319.75H67.5V335.25H75.25V366.25H59.75Z" fill="white"/>
</g>
<defs>
<filter id="filter0_d_1_3" x="528" y="37" width="196" height="190" filterUnits="userSpaceOnUse" color-interpolation-filters="sRGB">
<feFlood flood-opacity="0" result="BackgroundImageFix"/>
<feColorMatrix in="SourceAlpha" type="matrix" values="0 0 0 0 0 0 0 0 0 0 0 0 0 0 0 0 0 0 127 0" result="hardAlpha"/>
<feOffset dy="4"/>
<feGaussianBlur stdDeviation="2"/>
<feComposite in2="hardAlpha" operator="out"/>
<feColorMatrix type="matrix" values="0 0 0 0 0 0 0 0 0 0 0 0 0 0 0 0 0 0 0.25 0"/>
<feBlend mode="normal" in2="BackgroundImageFix" result="effect1_dropShadow_1_3"/>
<feBlend mode="normal" in="SourceGraphic" in2="effect1_dropShadow_1_3" result="shape"/>
</filter>
<filter id="filter1_d_1_3" x="323" y="37" width="196" height="190" filterUnits="userSpaceOnUse" color-interpolation-filters="sRGB">
<feFlood flood-opacity="0" result="BackgroundImageFix"/>
<feColorMatrix in="SourceAlpha" type="matrix" values="0 0 0 0 0 0 0 0 0 0 0 0 0 0 0 0 0 0 127 0" result="hardAlpha"/>
<feOffset dy="4"/>
<feGaussianBlur stdDeviation="2"/>
<feComposite in2="hardAlpha" operator="out"/>
<feColorMatrix type="matrix" values="0 0 0 0 0 0 0 0 0 0 0 0 0 0 0 0 0 0 0.25 0"/>
<feBlend mode="normal" in2="BackgroundImageFix" result="effect1_dropShadow_1_3"/>
<feBlend mode="normal" in="SourceGraphic" in2="effect1_dropShadow_1_3" result="shape"/>
</filter>
<filter id="filter2_d_1_3" x="118" y="37" width="196" height="190" filterUnits="userSpaceOnUse" color-interpolation-filters="sRGB">
<feFlood flood-opacity="0" result="BackgroundImageFix"/>
<feColorMatrix in="SourceAlpha" type="matrix" values="0 0 0 0 0 0 0 0 0 0 0 0 0 0 0 0 0 0 127 0" result="hardAlpha"/>
<feOffset dy="4"/>
<feGaussianBlur stdDeviation="2"/>
<feComposite in2="hardAlpha" operator="out"/>
<feColorMatrix type="matrix" values="0 0 0 0 0 0 0 0 0 0 0 0 0 0 0 0 0 0 0.25 0"/>
<feBlend mode="normal" in2="BackgroundImageFix" result="effect1_dropShadow_1_3"/>
<feBlend mode="normal" in="SourceGraphic" in2="effect1_dropShadow_1_3" result="shape"/>
</filter>
<clipPath id="clip0_1_3">
<rect width="1280" height="720" fill="white"/>
</clipPath>
<clipPath id="clip1_1_3">
<rect width="40" height="40" fill="white" transform="translate(545 51)"/>
</clipPath>
</defs>
</svg>
