<svg width="1280" height="720" viewBox="0 0 1280 720" fill="none" xmlns="http://www.w3.org/2000/svg">
<g clip-path="url(#clip0_1_3)">
<rect width="1280" height="720" fill="#DCDBDB" fill-opacity="0.45"/>
<rect x="102" width="1178" height="177" fill="#00995D"/>
<rect width="102" height="720" fill="#B1D34B" fill-opacity="0.85"/>
<rect x="122" y="526" width="17" height="185" rx="8.5" fill="#0A5F55"/>
<rect x="126" y="526" width="241" height="185" rx="18" fill="white"/>
<path d="M162 648.938C165.02 648.938 167.469 646.489 167.469 643.469C167.469 640.448 165.02 638 162 638C158.98 638 156.531 640.448 156.531 643.469C156.531 646.489 158.98 648.938 162 648.938Z" fill="#0A5F55"/>
<path d="M169.813 650.5H154.188C153.359 650.5 152.564 650.829 151.978 651.415C151.392 652.001 151.062 652.796 151.062 653.625V669.25H155.75V656.75H156.531V688H161.609V670.031H162.391V688H167.469V656.75H168.25V669.25H172.938V653.625C172.938 652.796 172.608 652.001 172.022 651.415C171.436 650.829 170.641 650.5 169.813 650.5Z" fill="#0A5F55"/>
<g clip-path="url(#clip1_1_3)">
<path d="M165.125 555.687C165.125 556.931 164.63 558.124 163.751 559.003C162.871 559.882 161.678 560.375 160.434 560.375C159.191 560.375 157.998 559.88 157.119 559C156.24 558.121 155.746 556.928 155.747 555.684C155.747 554.441 156.242 553.248 157.121 552.369C157.557 551.934 158.074 551.589 158.643 551.353C159.212 551.118 159.822 550.997 160.438 550.997C161.053 550.997 161.663 551.119 162.232 551.354C162.801 551.59 163.317 551.936 163.753 552.371C164.188 552.807 164.533 553.324 164.769 553.893C165.004 554.462 165.125 555.072 165.125 555.687ZM172.106 576L174.5 574.266L167.991 564.2C167.848 563.984 167.655 563.807 167.428 563.684C167.2 563.562 166.946 563.497 166.688 563.497H154.188C153.929 563.496 153.674 563.56 153.447 563.683C153.219 563.806 153.026 563.984 152.884 564.2L146.375 574.266L148.769 576L154.172 568.987L156.05 573.369L149.503 585.372H155.494L156.534 600.997H159.659V585.372H161.222V600.997H164.347L165.387 585.372H171.378L164.831 573.366L166.709 568.984L172.113 575.997L172.106 576Z" fill="#0A5F55"/>
</g>
<rect x="731" y="237" width="30" height="279" rx="15" fill="#ED1651"/>
<rect x="737" y="237" width="525" height="279" rx="25" fill="white"/>
<path d="M1242.33 249.833C1242.84 249.833 1243.33 250.035 1243.69 250.395C1244.05 250.754 1244.25 251.242 1244.25 251.75V286.25C1244.25 286.758 1244.05 287.246 1243.69 287.605C1243.33 287.965 1242.84 288.167 1242.33 288.167H1215.5C1214.99 288.167 1214.5 287.965 1214.14 287.605C1213.79 287.246 1213.58 286.758 1213.58 286.25V282.417H1209.75V278.583H1213.58V274.75H1209.75V270.917H1213.58V267.083H1209.75V263.25H1213.58V259.417H1209.75V255.583H1213.58V251.75C1213.58 251.242 1213.79 250.754 1214.14 250.395C1214.5 250.035 1214.99 249.833 1215.5 249.833H1242.33ZM1230.83 261.333H1227V267.083H1221.25V270.917H1227L1227 276.667H1230.83L1230.83 270.917H1236.58V267.083H1230.83V261.333Z" fill="#ED1651"/>
<rect x="122" y="237" width="30" height="279" rx="15" fill="#0A5F55"/>
<rect x="128" y="237" width="592" height="279" rx="25" fill="white"/>
<path fill-rule="evenodd" clip-rule="evenodd" d="M683.078 250.875H682.922C681.573 250.875 680.45 250.875 679.559 250.995C678.617 251.121 677.766 251.4 677.084 252.083C676.4 252.767 676.121 253.617 675.995 254.557C675.909 255.198 675.884 256.727 675.878 258.038C672.845 258.138 671.022 258.492 669.758 259.758C668 261.514 668 264.344 668 270C668 275.656 668 278.485 669.758 280.242C671.514 282 674.344 282 680 282H686C691.656 282 694.485 282 696.242 280.242C698 278.485 698 275.656 698 270C698 264.344 698 261.514 696.242 259.758C694.977 258.492 693.155 258.138 690.122 258.039C690.116 256.727 690.092 255.198 690.005 254.559C689.879 253.617 689.6 252.767 688.916 252.084C688.234 251.4 687.383 251.121 686.441 250.995C685.55 250.875 684.425 250.875 683.078 250.875ZM687.872 258.003C687.865 256.732 687.844 255.366 687.776 254.857C687.682 254.166 687.521 253.869 687.326 253.674C687.131 253.479 686.834 253.318 686.141 253.224C685.418 253.128 684.446 253.125 683 253.125C681.554 253.125 680.582 253.128 679.857 253.225C679.166 253.318 678.869 253.479 678.674 253.676C678.479 253.871 678.318 254.166 678.224 254.857C678.156 255.367 678.134 256.732 678.128 258.003C678.714 258 679.34 258 680 258H686C686.662 258 687.286 258 687.872 258.003ZM683 262.875C683.298 262.875 683.585 262.994 683.795 263.205C684.006 263.415 684.125 263.702 684.125 264V264.015C685.758 264.426 687.125 265.715 687.125 267.5C687.125 267.798 687.006 268.084 686.795 268.295C686.585 268.506 686.298 268.625 686 268.625C685.702 268.625 685.415 268.506 685.205 268.295C684.994 268.084 684.875 267.798 684.875 267.5C684.875 266.924 684.236 266.125 683 266.125C681.764 266.125 681.125 266.924 681.125 267.5C681.125 268.076 681.764 268.875 683 268.875C685.077 268.875 687.125 270.315 687.125 272.5C687.125 274.285 685.758 275.572 684.125 275.985V276C684.125 276.298 684.006 276.585 683.795 276.795C683.585 277.006 683.298 277.125 683 277.125C682.702 277.125 682.415 277.006 682.205 276.795C681.994 276.585 681.875 276.298 681.875 276V275.985C680.242 275.574 678.875 274.285 678.875 272.5C678.875 272.202 678.994 271.916 679.205 271.705C679.415 271.494 679.702 271.375 680 271.375C680.298 271.375 680.585 271.494 680.795 271.705C681.006 271.916 681.125 272.202 681.125 272.5C681.125 273.076 681.764 273.875 683 273.875C684.236 273.875 684.875 273.076 684.875 272.5C684.875 271.924 684.236 271.125 683 271.125C680.923 271.125 678.875 269.685 678.875 267.5C678.875 265.715 680.242 264.426 681.875 264.015V264C681.875 263.702 681.994 263.415 682.205 263.205C682.415 262.994 682.702 262.875 683 262.875Z" fill="#00995D"/>
<g filter="url(#filter0_d_1_3)">
<rect x="327" y="37" width="188" height="182" rx="18" fill="white"/>
<rect x="339" y="51" width="47" height="46" rx="8" fill="#B1D34B" fill-opacity="0.85"/>
<path fill-rule="evenodd" clip-rule="evenodd" d="M362.078 57.875H361.922C360.573 57.875 359.45 57.875 358.559 57.995C357.617 58.121 356.766 58.4 356.084 59.0825C355.4 59.7665 355.121 60.617 354.995 61.5575C354.909 62.198 354.884 63.7265 354.878 65.0375C351.845 65.138 350.022 65.492 348.758 66.758C347 68.5145 347 71.3435 347 77C347 82.6565 347 85.4855 348.758 87.242C350.514 89 353.344 89 359 89H365C370.656 89 373.485 89 375.242 87.242C377 85.4855 377 82.6565 377 77C377 71.3435 377 68.5145 375.242 66.758C373.977 65.492 372.155 65.138 369.122 65.039C369.116 63.7265 369.092 62.198 369.005 61.559C368.879 60.617 368.6 59.7665 367.916 59.084C367.234 58.4 366.383 58.121 365.441 57.995C364.55 57.875 363.425 57.875 362.078 57.875ZM366.872 65.003C366.865 63.7325 366.844 62.366 366.776 61.8575C366.682 61.166 366.521 60.869 366.326 60.674C366.131 60.479 365.834 60.3185 365.141 60.224C364.418 60.128 363.446 60.125 362 60.125C360.554 60.125 359.582 60.128 358.857 60.2255C358.166 60.3185 357.869 60.479 357.674 60.6755C357.479 60.8705 357.318 61.166 357.224 61.8575C357.156 62.3675 357.134 63.7325 357.128 65.003C357.714 65 358.34 65 359 65H365C365.662 65 366.286 65 366.872 65.003ZM362 69.875C362.298 69.875 362.585 69.9935 362.795 70.2045C363.006 70.4155 363.125 70.7016 363.125 71V71.015C364.758 71.426 366.125 72.7145 366.125 74.4995C366.125 74.7979 366.006 75.084 365.795 75.295C365.585 75.506 365.298 75.6245 365 75.6245C364.702 75.6245 364.415 75.506 364.205 75.295C363.994 75.084 363.875 74.7979 363.875 74.4995C363.875 73.9235 363.236 73.1255 362 73.1255C360.764 73.1255 360.125 73.9235 360.125 74.4995C360.125 75.0755 360.764 75.875 362 75.875C364.077 75.875 366.125 77.315 366.125 79.5005C366.125 81.2855 364.758 82.5725 363.125 82.985V83C363.125 83.2984 363.006 83.5845 362.795 83.7955C362.585 84.0065 362.298 84.125 362 84.125C361.702 84.125 361.415 84.0065 361.205 83.7955C360.994 83.5845 360.875 83.2984 360.875 83V82.985C359.242 82.574 357.875 81.2855 357.875 79.5005C357.875 79.2021 357.994 78.916 358.205 78.705C358.415 78.494 358.702 78.3755 359 78.3755C359.298 78.3755 359.585 78.494 359.795 78.705C360.006 78.916 360.125 79.2021 360.125 79.5005C360.125 80.0765 360.764 80.8745 362 80.8745C363.236 80.8745 363.875 80.0765 363.875 79.5005C363.875 78.9245 363.236 78.125 362 78.125C359.923 78.125 357.875 76.685 357.875 74.4995C357.875 72.7145 359.242 71.426 360.875 71.015V71C360.875 70.7016 360.994 70.4155 361.205 70.2045C361.415 69.9935 361.702 69.875 362 69.875Z" fill="white"/>
</g>
<g filter="url(#filter1_d_1_3)">
<rect x="532" y="37" width="188" height="182" rx="18" fill="white"/>
<rect x="544" y="51" width="47" height="46" rx="8" fill="#B1D34B" fill-opacity="0.85"/>
<path fill-rule="evenodd" clip-rule="evenodd" d="M567.078 57.875H566.922C565.573 57.875 564.45 57.875 563.559 57.995C562.617 58.121 561.766 58.4 561.084 59.0825C560.4 59.7665 560.121 60.617 559.995 61.5575C559.909 62.198 559.884 63.7265 559.878 65.0375C556.845 65.138 555.022 65.492 553.758 66.758C552 68.5145 552 71.3435 552 77C552 82.6565 552 85.4855 553.758 87.242C555.514 89 558.344 89 564 89H570C575.656 89 578.485 89 580.242 87.242C582 85.4855 582 82.6565 582 77C582 71.3435 582 68.5145 580.242 66.758C578.977 65.492 577.155 65.138 574.122 65.039C574.116 63.7265 574.092 62.198 574.005 61.559C573.879 60.617 573.6 59.7665 572.916 59.084C572.234 58.4 571.383 58.121 570.441 57.995C569.55 57.875 568.425 57.875 567.078 57.875ZM571.872 65.003C571.865 63.7325 571.844 62.366 571.776 61.8575C571.682 61.166 571.521 60.869 571.326 60.674C571.131 60.479 570.834 60.3185 570.141 60.224C569.418 60.128 568.446 60.125 567 60.125C565.554 60.125 564.582 60.128 563.857 60.2255C563.166 60.3185 562.869 60.479 562.674 60.6755C562.479 60.8705 562.318 61.166 562.224 61.8575C562.156 62.3675 562.134 63.7325 562.128 65.003C562.714 65 563.34 65 564 65H570C570.662 65 571.286 65 571.872 65.003ZM567 69.875C567.298 69.875 567.585 69.9935 567.795 70.2045C568.006 70.4155 568.125 70.7016 568.125 71V71.015C569.758 71.426 571.125 72.7145 571.125 74.4995C571.125 74.7979 571.006 75.084 570.795 75.295C570.585 75.506 570.298 75.6245 570 75.6245C569.702 75.6245 569.415 75.506 569.205 75.295C568.994 75.084 568.875 74.7979 568.875 74.4995C568.875 73.9235 568.236 73.1255 567 73.1255C565.764 73.1255 565.125 73.9235 565.125 74.4995C565.125 75.0755 565.764 75.875 567 75.875C569.077 75.875 571.125 77.315 571.125 79.5005C571.125 81.2855 569.758 82.5725 568.125 82.985V83C568.125 83.2984 568.006 83.5845 567.795 83.7955C567.585 84.0065 567.298 84.125 567 84.125C566.702 84.125 566.415 84.0065 566.205 83.7955C565.994 83.5845 565.875 83.2984 565.875 83V82.985C564.242 82.574 562.875 81.2855 562.875 79.5005C562.875 79.2021 562.994 78.916 563.205 78.705C563.415 78.494 563.702 78.3755 564 78.3755C564.298 78.3755 564.585 78.494 564.795 78.705C565.006 78.916 565.125 79.2021 565.125 79.5005C565.125 80.0765 565.764 80.8745 567 80.8745C568.236 80.8745 568.875 80.0765 568.875 79.5005C568.875 78.9245 568.236 78.125 567 78.125C564.923 78.125 562.875 76.685 562.875 74.4995C562.875 72.7145 564.242 71.426 565.875 71.015V71C565.875 70.7016 565.994 70.4155 566.205 70.2045C566.415 69.9935 566.702 69.875 567 69.875Z" fill="white"/>
</g>
<g filter="url(#filter2_d_1_3)">
<rect x="122" y="37" width="188" height="182" rx="18" fill="white"/>
<rect x="134" y="51" width="47" height="46" rx="8" fill="#B1D34B" fill-opacity="0.85"/>
<path fill-rule="evenodd" clip-rule="evenodd" d="M157.078 57.875H156.922C155.573 57.875 154.45 57.875 153.559 57.995C152.617 58.121 151.766 58.4 151.084 59.0825C150.4 59.7665 150.121 60.617 149.995 61.5575C149.909 62.198 149.884 63.7265 149.878 65.0375C146.845 65.138 145.022 65.492 143.758 66.758C142 68.5145 142 71.3435 142 77C142 82.6565 142 85.4855 143.758 87.242C145.514 89 148.344 89 154 89H160C165.656 89 168.485 89 170.242 87.242C172 85.4855 172 82.6565 172 77C172 71.3435 172 68.5145 170.242 66.758C168.977 65.492 167.155 65.138 164.122 65.039C164.116 63.7265 164.092 62.198 164.005 61.559C163.879 60.617 163.6 59.7665 162.916 59.084C162.234 58.4 161.383 58.121 160.441 57.995C159.55 57.875 158.425 57.875 157.078 57.875ZM161.872 65.003C161.865 63.7325 161.844 62.366 161.776 61.8575C161.682 61.166 161.521 60.869 161.326 60.674C161.131 60.479 160.834 60.3185 160.141 60.224C159.418 60.128 158.446 60.125 157 60.125C155.554 60.125 154.582 60.128 153.857 60.2255C153.166 60.3185 152.869 60.479 152.674 60.6755C152.479 60.8705 152.318 61.166 152.224 61.8575C152.156 62.3675 152.134 63.7325 152.128 65.003C152.714 65 153.34 65 154 65H160C160.662 65 161.286 65 161.872 65.003ZM157 69.875C157.298 69.875 157.585 69.9935 157.795 70.2045C158.006 70.4155 158.125 70.7016 158.125 71V71.015C159.758 71.426 161.125 72.7145 161.125 74.4995C161.125 74.7979 161.006 75.084 160.795 75.295C160.585 75.506 160.298 75.6245 160 75.6245C159.702 75.6245 159.415 75.506 159.205 75.295C158.994 75.084 158.875 74.7979 158.875 74.4995C158.875 73.9235 158.236 73.1255 157 73.1255C155.764 73.1255 155.125 73.9235 155.125 74.4995C155.125 75.0755 155.764 75.875 157 75.875C159.077 75.875 161.125 77.315 161.125 79.5005C161.125 81.2855 159.758 82.5725 158.125 82.985V83C158.125 83.2984 158.006 83.5845 157.795 83.7955C157.585 84.0065 157.298 84.125 157 84.125C156.702 84.125 156.415 84.0065 156.205 83.7955C155.994 83.5845 155.875 83.2984 155.875 83V82.985C154.242 82.574 152.875 81.2855 152.875 79.5005C152.875 79.2021 152.994 78.916 153.205 78.705C153.415 78.494 153.702 78.3755 154 78.3755C154.298 78.3755 154.585 78.494 154.795 78.705C155.006 78.916 155.125 79.2021 155.125 79.5005C155.125 80.0765 155.764 80.8745 157 80.8745C158.236 80.8745 158.875 80.0765 158.875 79.5005C158.875 78.9245 158.236 78.125 157 78.125C154.923 78.125 152.875 76.685 152.875 74.4995C152.875 72.7145 154.242 71.426 155.875 71.015V71C155.875 70.7016 155.994 70.4155 156.205 70.2045C156.415 69.9935 156.702 69.875 157 69.875Z" fill="white"/>
</g>
</g>
<defs>
<filter id="filter0_d_1_3" x="323" y="37" width="196" height="190" filterUnits="userSpaceOnUse" color-interpolation-filters="sRGB">
<feFlood flood-opacity="0" result="BackgroundImageFix"/>
<feColorMatrix in="SourceAlpha" type="matrix" values="0 0 0 0 0 0 0 0 0 0 0 0 0 0 0 0 0 0 127 0" result="hardAlpha"/>
<feOffset dy="4"/>
<feGaussianBlur stdDeviation="2"/>
<feComposite in2="hardAlpha" operator="out"/>
<feColorMatrix type="matrix" values="0 0 0 0 0 0 0 0 0 0 0 0 0 0 0 0 0 0 0.25 0"/>
<feBlend mode="normal" in2="BackgroundImageFix" result="effect1_dropShadow_1_3"/>
<feBlend mode="normal" in="SourceGraphic" in2="effect1_dropShadow_1_3" result="shape"/>
</filter>
<filter id="filter1_d_1_3" x="528" y="37" width="196" height="190" filterUnits="userSpaceOnUse" color-interpolation-filters="sRGB">
<feFlood flood-opacity="0" result="BackgroundImageFix"/>
<feColorMatrix in="SourceAlpha" type="matrix" values="0 0 0 0 0 0 0 0 0 0 0 0 0 0 0 0 0 0 127 0" result="hardAlpha"/>
<feOffset dy="4"/>
<feGaussianBlur stdDeviation="2"/>
<feComposite in2="hardAlpha" operator="out"/>
<feColorMatrix type="matrix" values="0 0 0 0 0 0 0 0 0 0 0 0 0 0 0 0 0 0 0.25 0"/>
<feBlend mode="normal" in2="BackgroundImageFix" result="effect1_dropShadow_1_3"/>
<feBlend mode="normal" in="SourceGraphic" in2="effect1_dropShadow_1_3" result="shape"/>
</filter>
<filter id="filter2_d_1_3" x="118" y="37" width="196" height="190" filterUnits="userSpaceOnUse" color-interpolation-filters="sRGB">
<feFlood flood-opacity="0" result="BackgroundImageFix"/>
<feColorMatrix in="SourceAlpha" type="matrix" values="0 0 0 0 0 0 0 0 0 0 0 0 0 0 0 0 0 0 127 0" result="hardAlpha"/>
<feOffset dy="4"/>
<feGaussianBlur stdDeviation="2"/>
<feComposite in2="hardAlpha" operator="out"/>
<feColorMatrix type="matrix" values="0 0 0 0 0 0 0 0 0 0 0 0 0 0 0 0 0 0 0.25 0"/>
<feBlend mode="normal" in2="BackgroundImageFix" result="effect1_dropShadow_1_3"/>
<feBlend mode="normal" in="SourceGraphic" in2="effect1_dropShadow_1_3" result="shape"/>
</filter>
<clipPath id="clip0_1_3">
<rect width="1280" height="720" fill="white"/>
</clipPath>
<clipPath id="clip1_1_3">
<rect width="50" height="50" fill="white" transform="translate(137 551)"/>
</clipPath>
</defs>
</svg>
