<svg width="1280" height="720" viewBox="0 0 1280 720" fill="none" xmlns="http://www.w3.org/2000/svg">
<g clip-path="url(#clip0_42_58)">
<rect width="1280" height="720" fill="#DCDBDB" fill-opacity="0.45"/>
<rect x="102" width="1178" height="177" fill="#00995D"/>
<rect width="102" height="720" fill="#B1D34B"/>
<g filter="url(#filter0_d_42_58)">
<rect x="327" y="37" width="188" height="182" rx="18" fill="white"/>
<rect x="339" y="51" width="47" height="46" rx="8" fill="#B1D34B" fill-opacity="0.85"/>
<path fill-rule="evenodd" clip-rule="evenodd" d="M362.078 57.875H361.922C360.573 57.875 359.45 57.875 358.559 57.995C357.617 58.121 356.766 58.4 356.084 59.0825C355.4 59.7665 355.121 60.617 354.995 61.5575C354.91 62.198 354.884 63.7265 354.878 65.0375C351.845 65.138 350.022 65.492 348.758 66.758C347 68.5145 347 71.3435 347 77C347 82.6565 347 85.4855 348.758 87.242C350.514 89 353.344 89 359 89H365C370.656 89 373.485 89 375.242 87.242C377 85.4855 377 82.6565 377 77C377 71.3435 377 68.5145 375.242 66.758C373.977 65.492 372.155 65.138 369.122 65.039C369.116 63.7265 369.092 62.198 369.005 61.559C368.879 60.617 368.6 59.7665 367.916 59.084C367.233 58.4 366.383 58.121 365.441 57.995C364.55 57.875 363.425 57.875 362.078 57.875ZM366.872 65.003C366.865 63.7325 366.844 62.366 366.776 61.8575C366.681 61.166 366.521 60.869 366.326 60.674C366.131 60.479 365.834 60.3185 365.141 60.224C364.418 60.128 363.446 60.125 362 60.125C360.554 60.125 359.582 60.128 358.858 60.2255C358.166 60.3185 357.869 60.479 357.674 60.6755C357.479 60.8705 357.318 61.166 357.224 61.8575C357.156 62.3675 357.134 63.7325 357.128 65.003C357.714 65 358.34 65 359 65H365C365.662 65 366.285 65 366.872 65.003ZM362 69.875C362.298 69.875 362.585 69.9935 362.795 70.2045C363.006 70.4155 363.125 70.7016 363.125 71V71.015C364.758 71.426 366.125 72.7145 366.125 74.4995C366.125 74.7979 366.006 75.084 365.795 75.295C365.585 75.506 365.298 75.6245 365 75.6245C364.702 75.6245 364.415 75.506 364.205 75.295C363.994 75.084 363.875 74.7979 363.875 74.4995C363.875 73.9235 363.236 73.1255 362 73.1255C360.764 73.1255 360.125 73.9235 360.125 74.4995C360.125 75.0755 360.764 75.875 362 75.875C364.077 75.875 366.125 77.315 366.125 79.5005C366.125 81.2855 364.758 82.5725 363.125 82.985V83C363.125 83.2984 363.006 83.5845 362.795 83.7955C362.585 84.0065 362.298 84.125 362 84.125C361.702 84.125 361.415 84.0065 361.205 83.7955C360.994 83.5845 360.875 83.2984 360.875 83V82.985C359.241 82.574 357.875 81.2855 357.875 79.5005C357.875 79.2021 357.994 78.916 358.205 78.705C358.415 78.494 358.702 78.3755 359 78.3755C359.298 78.3755 359.585 78.494 359.795 78.705C360.006 78.916 360.125 79.2021 360.125 79.5005C360.125 80.0765 360.764 80.8745 362 80.8745C363.236 80.8745 363.875 80.0765 363.875 79.5005C363.875 78.9245 363.236 78.125 362 78.125C359.922 78.125 357.875 76.685 357.875 74.4995C357.875 72.7145 359.241 71.426 360.875 71.015V71C360.875 70.7016 360.994 70.4155 361.205 70.2045C361.415 69.9935 361.702 69.875 362 69.875Z" fill="white"/>
</g>
<g filter="url(#filter1_d_42_58)">
<rect x="532" y="37" width="188" height="182" rx="18" fill="white"/>
<rect x="544" y="51" width="47" height="46" rx="8" fill="#B1D34B" fill-opacity="0.85"/>
<path fill-rule="evenodd" clip-rule="evenodd" d="M567.078 57.875H566.922C565.573 57.875 564.45 57.875 563.559 57.995C562.617 58.121 561.766 58.4 561.084 59.0825C560.4 59.7665 560.121 60.617 559.995 61.5575C559.91 62.198 559.884 63.7265 559.878 65.0375C556.845 65.138 555.022 65.492 553.758 66.758C552 68.5145 552 71.3435 552 77C552 82.6565 552 85.4855 553.758 87.242C555.514 89 558.344 89 564 89H570C575.656 89 578.485 89 580.242 87.242C582 85.4855 582 82.6565 582 77C582 71.3435 582 68.5145 580.242 66.758C578.977 65.492 577.155 65.138 574.122 65.039C574.116 63.7265 574.092 62.198 574.005 61.559C573.879 60.617 573.6 59.7665 572.916 59.084C572.233 58.4 571.383 58.121 570.441 57.995C569.55 57.875 568.425 57.875 567.078 57.875ZM571.872 65.003C571.865 63.7325 571.844 62.366 571.776 61.8575C571.681 61.166 571.521 60.869 571.326 60.674C571.131 60.479 570.834 60.3185 570.141 60.224C569.418 60.128 568.446 60.125 567 60.125C565.554 60.125 564.582 60.128 563.858 60.2255C563.166 60.3185 562.869 60.479 562.674 60.6755C562.479 60.8705 562.318 61.166 562.224 61.8575C562.156 62.3675 562.134 63.7325 562.128 65.003C562.714 65 563.34 65 564 65H570C570.662 65 571.285 65 571.872 65.003ZM567 69.875C567.298 69.875 567.585 69.9935 567.795 70.2045C568.006 70.4155 568.125 70.7016 568.125 71V71.015C569.758 71.426 571.125 72.7145 571.125 74.4995C571.125 74.7979 571.006 75.084 570.795 75.295C570.585 75.506 570.298 75.6245 570 75.6245C569.702 75.6245 569.415 75.506 569.205 75.295C568.994 75.084 568.875 74.7979 568.875 74.4995C568.875 73.9235 568.236 73.1255 567 73.1255C565.764 73.1255 565.125 73.9235 565.125 74.4995C565.125 75.0755 565.764 75.875 567 75.875C569.077 75.875 571.125 77.315 571.125 79.5005C571.125 81.2855 569.758 82.5725 568.125 82.985V83C568.125 83.2984 568.006 83.5845 567.795 83.7955C567.585 84.0065 567.298 84.125 567 84.125C566.702 84.125 566.415 84.0065 566.205 83.7955C565.994 83.5845 565.875 83.2984 565.875 83V82.985C564.241 82.574 562.875 81.2855 562.875 79.5005C562.875 79.2021 562.994 78.916 563.205 78.705C563.415 78.494 563.702 78.3755 564 78.3755C564.298 78.3755 564.585 78.494 564.795 78.705C565.006 78.916 565.125 79.2021 565.125 79.5005C565.125 80.0765 565.764 80.8745 567 80.8745C568.236 80.8745 568.875 80.0765 568.875 79.5005C568.875 78.9245 568.236 78.125 567 78.125C564.922 78.125 562.875 76.685 562.875 74.4995C562.875 72.7145 564.241 71.426 565.875 71.015V71C565.875 70.7016 565.994 70.4155 566.205 70.2045C566.415 69.9935 566.702 69.875 567 69.875Z" fill="white"/>
</g>
<g filter="url(#filter2_d_42_58)">
<rect x="122" y="37" width="188" height="182" rx="18" fill="white"/>
<rect x="134" y="51" width="47" height="46" rx="8" fill="#B1D34B" fill-opacity="0.85"/>
<path fill-rule="evenodd" clip-rule="evenodd" d="M157.078 57.875H156.922C155.573 57.875 154.45 57.875 153.559 57.995C152.617 58.121 151.766 58.4 151.084 59.0825C150.4 59.7665 150.121 60.617 149.995 61.5575C149.91 62.198 149.884 63.7265 149.878 65.0375C146.845 65.138 145.022 65.492 143.758 66.758C142 68.5145 142 71.3435 142 77C142 82.6565 142 85.4855 143.758 87.242C145.514 89 148.344 89 154 89H160C165.656 89 168.485 89 170.242 87.242C172 85.4855 172 82.6565 172 77C172 71.3435 172 68.5145 170.242 66.758C168.977 65.492 167.155 65.138 164.122 65.039C164.116 63.7265 164.092 62.198 164.005 61.559C163.879 60.617 163.6 59.7665 162.916 59.084C162.233 58.4 161.383 58.121 160.441 57.995C159.55 57.875 158.425 57.875 157.078 57.875ZM161.872 65.003C161.865 63.7325 161.844 62.366 161.776 61.8575C161.681 61.166 161.521 60.869 161.326 60.674C161.131 60.479 160.834 60.3185 160.141 60.224C159.418 60.128 158.446 60.125 157 60.125C155.554 60.125 154.582 60.128 153.858 60.2255C153.166 60.3185 152.869 60.479 152.674 60.6755C152.479 60.8705 152.318 61.166 152.224 61.8575C152.156 62.3675 152.134 63.7325 152.128 65.003C152.714 65 153.34 65 154 65H160C160.662 65 161.285 65 161.872 65.003ZM157 69.875C157.298 69.875 157.585 69.9935 157.795 70.2045C158.006 70.4155 158.125 70.7016 158.125 71V71.015C159.758 71.426 161.125 72.7145 161.125 74.4995C161.125 74.7979 161.006 75.084 160.795 75.295C160.585 75.506 160.298 75.6245 160 75.6245C159.702 75.6245 159.415 75.506 159.205 75.295C158.994 75.084 158.875 74.7979 158.875 74.4995C158.875 73.9235 158.236 73.1255 157 73.1255C155.764 73.1255 155.125 73.9235 155.125 74.4995C155.125 75.0755 155.764 75.875 157 75.875C159.077 75.875 161.125 77.315 161.125 79.5005C161.125 81.2855 159.758 82.5725 158.125 82.985V83C158.125 83.2984 158.006 83.5845 157.795 83.7955C157.585 84.0065 157.298 84.125 157 84.125C156.702 84.125 156.415 84.0065 156.205 83.7955C155.994 83.5845 155.875 83.2984 155.875 83V82.985C154.241 82.574 152.875 81.2855 152.875 79.5005C152.875 79.2021 152.994 78.916 153.205 78.705C153.415 78.494 153.702 78.3755 154 78.3755C154.298 78.3755 154.585 78.494 154.795 78.705C155.006 78.916 155.125 79.2021 155.125 79.5005C155.125 80.0765 155.764 80.8745 157 80.8745C158.236 80.8745 158.875 80.0765 158.875 79.5005C158.875 78.9245 158.236 78.125 157 78.125C154.922 78.125 152.875 76.685 152.875 74.4995C152.875 72.7145 154.241 71.426 155.875 71.015V71C155.875 70.7016 155.994 70.4155 156.205 70.2045C156.415 69.9935 156.702 69.875 157 69.875Z" fill="white"/>
</g>
<rect y="217" width="102" height="75" fill="#00995D"/>
<path d="M40.3333 250.333V239C40.3333 237.889 40.7227 236.945 41.5013 236.168C42.28 235.391 43.224 235.002 44.3333 235C45.4427 234.998 46.3876 235.388 47.168 236.168C47.9484 236.948 48.3369 237.892 48.3333 239V250.333C48.3333 251.444 47.9449 252.389 47.168 253.168C46.3911 253.947 45.4462 254.335 44.3333 254.333C43.2204 254.332 42.2764 253.943 41.5013 253.168C40.7262 252.393 40.3369 251.448 40.3333 250.333ZM53.6667 249.733V228.333C53.6667 227.222 54.056 226.278 54.8347 225.501C55.6133 224.724 56.5573 224.335 57.6667 224.333C58.776 224.332 59.7209 224.721 60.5013 225.501C61.2818 226.282 61.6702 227.226 61.6667 228.333V249.733C61.6667 251.067 61.256 252.067 60.4347 252.733C59.6133 253.4 58.6907 253.733 57.6667 253.733C56.6427 253.733 55.7209 253.4 54.9013 252.733C54.0818 252.067 53.6702 251.067 53.6667 249.733ZM27 258.933V249.667C27 248.556 27.3893 247.612 28.168 246.835C28.9467 246.058 29.8907 245.668 31 245.667C32.1093 245.665 33.0542 246.054 33.8347 246.835C34.6151 247.615 35.0036 248.559 35 249.667V258.933C35 260.267 34.5893 261.267 33.768 261.933C32.9467 262.6 32.024 262.933 31 262.933C29.976 262.933 29.0542 262.6 28.2347 261.933C27.4151 261.267 27.0036 260.267 27 258.933ZM33.4 275.133C32.2444 275.133 31.4329 274.589 30.9653 273.501C30.4978 272.413 30.6871 271.446 31.5333 270.6L42.4667 259.667C42.9556 259.178 43.5449 258.911 44.2347 258.867C44.9244 258.822 45.5351 259.044 46.0667 259.533L53.6667 266.067L68.6 251.133H67C66.2444 251.133 65.6116 250.877 65.1013 250.365C64.5911 249.853 64.3351 249.22 64.3333 248.467C64.3316 247.713 64.5876 247.08 65.1013 246.568C65.6151 246.056 66.248 245.8 67 245.8H75C75.7556 245.8 76.3893 246.056 76.9013 246.568C77.4133 247.08 77.6684 247.713 77.6667 248.467V256.467C77.6667 257.222 77.4107 257.856 76.8987 258.368C76.3867 258.88 75.7538 259.135 75 259.133C74.2462 259.132 73.6133 258.876 73.1013 258.365C72.5893 257.855 72.3333 257.222 72.3333 256.467V254.867L55.6667 271.533C55.1778 272.022 54.5884 272.289 53.8987 272.333C53.2089 272.378 52.5982 272.156 52.0667 271.667L44.4667 265.133L35.2667 274.333C35.0444 274.556 34.7671 274.745 34.4347 274.901C34.1022 275.058 33.7573 275.135 33.4 275.133Z" fill="white"/>
<path d="M61.6875 325.375H53.9375V317.625H50.0625V325.375H42.3125V329.25H50.0625V337H53.9375V329.25H61.6875V325.375Z" fill="white"/>
<path d="M75.25 325.375H71.375V313.75C71.375 312.722 70.9667 311.737 70.24 311.01C69.5133 310.283 68.5277 309.875 67.5 309.875H36.5C35.4723 309.875 34.4867 310.283 33.76 311.01C33.0333 311.737 32.625 312.722 32.625 313.75V325.375H28.75C27.7223 325.375 26.7367 325.783 26.01 326.51C25.2833 327.237 24.875 328.222 24.875 329.25V364.125H79.125V329.25C79.125 328.222 78.7167 327.237 77.99 326.51C77.2633 325.783 76.2777 325.375 75.25 325.375ZM48.125 360.25V348.625H55.875V360.25H48.125ZM59.75 360.25V346.688C59.75 346.174 59.5459 345.681 59.1825 345.317C58.8192 344.954 58.3264 344.75 57.8125 344.75H46.1875C45.6736 344.75 45.1808 344.954 44.8175 345.317C44.4541 345.681 44.25 346.174 44.25 346.688V360.25H28.75V329.25H36.5V313.75H67.5V329.25H75.25V360.25H59.75Z" fill="white"/>
</g>
<defs>
<filter id="filter0_d_42_58" x="323" y="37" width="196" height="190" filterUnits="userSpaceOnUse" color-interpolation-filters="sRGB">
<feFlood flood-opacity="0" result="BackgroundImageFix"/>
<feColorMatrix in="SourceAlpha" type="matrix" values="0 0 0 0 0 0 0 0 0 0 0 0 0 0 0 0 0 0 127 0" result="hardAlpha"/>
<feOffset dy="4"/>
<feGaussianBlur stdDeviation="2"/>
<feComposite in2="hardAlpha" operator="out"/>
<feColorMatrix type="matrix" values="0 0 0 0 0 0 0 0 0 0 0 0 0 0 0 0 0 0 0.25 0"/>
<feBlend mode="normal" in2="BackgroundImageFix" result="effect1_dropShadow_42_58"/>
<feBlend mode="normal" in="SourceGraphic" in2="effect1_dropShadow_42_58" result="shape"/>
</filter>
<filter id="filter1_d_42_58" x="528" y="37" width="196" height="190" filterUnits="userSpaceOnUse" color-interpolation-filters="sRGB">
<feFlood flood-opacity="0" result="BackgroundImageFix"/>
<feColorMatrix in="SourceAlpha" type="matrix" values="0 0 0 0 0 0 0 0 0 0 0 0 0 0 0 0 0 0 127 0" result="hardAlpha"/>
<feOffset dy="4"/>
<feGaussianBlur stdDeviation="2"/>
<feComposite in2="hardAlpha" operator="out"/>
<feColorMatrix type="matrix" values="0 0 0 0 0 0 0 0 0 0 0 0 0 0 0 0 0 0 0.25 0"/>
<feBlend mode="normal" in2="BackgroundImageFix" result="effect1_dropShadow_42_58"/>
<feBlend mode="normal" in="SourceGraphic" in2="effect1_dropShadow_42_58" result="shape"/>
</filter>
<filter id="filter2_d_42_58" x="118" y="37" width="196" height="190" filterUnits="userSpaceOnUse" color-interpolation-filters="sRGB">
<feFlood flood-opacity="0" result="BackgroundImageFix"/>
<feColorMatrix in="SourceAlpha" type="matrix" values="0 0 0 0 0 0 0 0 0 0 0 0 0 0 0 0 0 0 127 0" result="hardAlpha"/>
<feOffset dy="4"/>
<feGaussianBlur stdDeviation="2"/>
<feComposite in2="hardAlpha" operator="out"/>
<feColorMatrix type="matrix" values="0 0 0 0 0 0 0 0 0 0 0 0 0 0 0 0 0 0 0.25 0"/>
<feBlend mode="normal" in2="BackgroundImageFix" result="effect1_dropShadow_42_58"/>
<feBlend mode="normal" in="SourceGraphic" in2="effect1_dropShadow_42_58" result="shape"/>
</filter>
<clipPath id="clip0_42_58">
<rect width="1280" height="720" fill="white"/>
</clipPath>
</defs>
</svg>
