<svg width="1280" height="720" viewBox="0 0 1280 720" fill="none" xmlns="http://www.w3.org/2000/svg">
<rect width="1280" height="720" fill="#FFFEFE"/>
<g filter="url(#filter0_d_1_3)">
<rect x="13" y="186" width="580" height="270" fill="#00995D"/>
</g>
<rect x="13" y="68" width="70" height="110" rx="35" fill="#B1D34B" fill-opacity="0.85"/>
<rect x="26.9581" y="68" width="212.042" height="110" rx="23" fill="#00995D"/>
<path fill-rule="evenodd" clip-rule="evenodd" d="M210.104 133H209.896C208.098 133 206.6 133 205.412 133.15C204.156 133.308 203.022 133.658 202.112 134.513C201.2 135.37 200.828 136.436 200.66 137.614C200.546 138.417 200.512 140.332 200.504 141.975C196.46 142.101 194.03 142.544 192.344 144.131C190 146.331 190 149.876 190 156.964C190 164.052 190 167.596 192.344 169.797C194.686 172 198.458 172 206 172H214C221.542 172 225.314 172 227.656 169.797C230 167.596 230 164.052 230 156.964C230 149.876 230 146.331 227.656 144.131C225.97 142.544 223.54 142.101 219.496 141.977C219.488 140.332 219.456 138.417 219.34 137.616C219.172 136.436 218.8 135.37 217.888 134.515C216.978 133.658 215.844 133.308 214.588 133.15C213.4 133 211.9 133 210.104 133ZM216.496 141.931C216.486 140.34 216.458 138.627 216.368 137.99C216.242 137.124 216.028 136.752 215.768 136.507C215.508 136.263 215.112 136.062 214.188 135.943C213.224 135.823 211.928 135.819 210 135.819C208.072 135.819 206.776 135.823 205.81 135.945C204.888 136.062 204.492 136.263 204.232 136.509C203.972 136.753 203.758 137.124 203.632 137.99C203.542 138.629 203.512 140.34 203.504 141.931C204.286 141.928 205.12 141.928 206 141.928H214C214.882 141.928 215.714 141.928 216.496 141.931ZM210 148.036C210.398 148.036 210.779 148.185 211.061 148.449C211.342 148.713 211.5 149.072 211.5 149.446V149.465C213.678 149.98 215.5 151.594 215.5 153.831C215.5 154.205 215.342 154.563 215.061 154.827C214.779 155.092 214.398 155.24 214 155.24C213.602 155.24 213.221 155.092 212.939 154.827C212.658 154.563 212.5 154.205 212.5 153.831C212.5 153.109 211.648 152.109 210 152.109C208.352 152.109 207.5 153.109 207.5 153.831C207.5 154.552 208.352 155.554 210 155.554C212.77 155.554 215.5 157.359 215.5 160.097C215.5 162.334 213.678 163.946 211.5 164.463V164.482C211.5 164.856 211.342 165.214 211.061 165.479C210.779 165.743 210.398 165.892 210 165.892C209.602 165.892 209.221 165.743 208.939 165.479C208.658 165.214 208.5 164.856 208.5 164.482V164.463C206.322 163.948 204.5 162.334 204.5 160.097C204.5 159.723 204.658 159.365 204.939 159.1C205.221 158.836 205.602 158.687 206 158.687C206.398 158.687 206.779 158.836 207.061 159.1C207.342 159.365 207.5 159.723 207.5 160.097C207.5 160.819 208.352 161.819 210 161.819C211.648 161.819 212.5 160.819 212.5 160.097C212.5 159.375 211.648 158.373 210 158.373C207.23 158.373 204.5 156.569 204.5 153.831C204.5 151.594 206.322 149.98 208.5 149.465V149.446C208.5 149.072 208.658 148.713 208.939 148.449C209.221 148.185 209.602 148.036 210 148.036Z" fill="white"/>
<rect x="249" y="68" width="70" height="110" rx="35" fill="#B1D34B" fill-opacity="0.85"/>
<rect x="262.958" y="68" width="212.042" height="110" rx="23" fill="#00995D"/>
<path fill-rule="evenodd" clip-rule="evenodd" d="M446.104 133H445.896C444.098 133 442.6 133 441.412 133.15C440.156 133.308 439.022 133.658 438.112 134.513C437.2 135.37 436.828 136.436 436.66 137.614C436.546 138.417 436.512 140.332 436.504 141.975C432.46 142.101 430.03 142.544 428.344 144.131C426 146.331 426 149.876 426 156.964C426 164.052 426 167.596 428.344 169.797C430.686 172 434.458 172 442 172H450C457.542 172 461.314 172 463.656 169.797C466 167.596 466 164.052 466 156.964C466 149.876 466 146.331 463.656 144.131C461.97 142.544 459.54 142.101 455.496 141.977C455.488 140.332 455.456 138.417 455.34 137.616C455.172 136.436 454.8 135.37 453.888 134.515C452.978 133.658 451.844 133.308 450.588 133.15C449.4 133 447.9 133 446.104 133ZM452.496 141.931C452.486 140.34 452.458 138.627 452.368 137.99C452.242 137.124 452.028 136.752 451.768 136.507C451.508 136.263 451.112 136.062 450.188 135.943C449.224 135.823 447.928 135.819 446 135.819C444.072 135.819 442.776 135.823 441.81 135.945C440.888 136.062 440.492 136.263 440.232 136.509C439.972 136.753 439.758 137.124 439.632 137.99C439.542 138.629 439.512 140.34 439.504 141.931C440.286 141.928 441.12 141.928 442 141.928H450C450.882 141.928 451.714 141.928 452.496 141.931ZM446 148.036C446.398 148.036 446.779 148.185 447.061 148.449C447.342 148.713 447.5 149.072 447.5 149.446V149.465C449.678 149.98 451.5 151.594 451.5 153.831C451.5 154.205 451.342 154.563 451.061 154.827C450.779 155.092 450.398 155.24 450 155.24C449.602 155.24 449.221 155.092 448.939 154.827C448.658 154.563 448.5 154.205 448.5 153.831C448.5 153.109 447.648 152.109 446 152.109C444.352 152.109 443.5 153.109 443.5 153.831C443.5 154.552 444.352 155.554 446 155.554C448.77 155.554 451.5 157.359 451.5 160.097C451.5 162.334 449.678 163.946 447.5 164.463V164.482C447.5 164.856 447.342 165.214 447.061 165.479C446.779 165.743 446.398 165.892 446 165.892C445.602 165.892 445.221 165.743 444.939 165.479C444.658 165.214 444.5 164.856 444.5 164.482V164.463C442.322 163.948 440.5 162.334 440.5 160.097C440.5 159.723 440.658 159.365 440.939 159.1C441.221 158.836 441.602 158.687 442 158.687C442.398 158.687 442.779 158.836 443.061 159.1C443.342 159.365 443.5 159.723 443.5 160.097C443.5 160.819 444.352 161.819 446 161.819C447.648 161.819 448.5 160.819 448.5 160.097C448.5 159.375 447.648 158.373 446 158.373C443.23 158.373 440.5 156.569 440.5 153.831C440.5 151.594 442.322 149.98 444.5 149.465V149.446C444.5 149.072 444.658 148.713 444.939 148.449C445.221 148.185 445.602 148.036 446 148.036Z" fill="white"/>
<path d="M412 158.2H418.111V164.2H412V158.2ZM420.556 147.4H419.333V145H416.889V147.4H407.111V145H404.667V147.4H403.444C402.1 147.4 401 148.48 401 149.8V166.6C401 167.92 402.1 169 403.444 169H420.556C421.9 169 423 167.92 423 166.6V149.8C423 148.48 421.9 147.4 420.556 147.4ZM420.556 149.8V152.2H403.444V149.8H420.556ZM403.444 166.6V154.6H420.556V166.6H403.444Z" fill="white"/>
<rect width="1280" height="60" fill="#00995D"/>
<defs>
<filter id="filter0_d_1_3" x="4" y="183" width="598" height="288" filterUnits="userSpaceOnUse" color-interpolation-filters="sRGB">
<feFlood flood-opacity="0" result="BackgroundImageFix"/>
<feColorMatrix in="SourceAlpha" type="matrix" values="0 0 0 0 0 0 0 0 0 0 0 0 0 0 0 0 0 0 127 0" result="hardAlpha"/>
<feOffset dy="6"/>
<feGaussianBlur stdDeviation="4.5"/>
<feComposite in2="hardAlpha" operator="out"/>
<feColorMatrix type="matrix" values="0 0 0 0 0 0 0 0 0 0 0 0 0 0 0 0 0 0 0.35 0"/>
<feBlend mode="normal" in2="BackgroundImageFix" result="effect1_dropShadow_1_3"/>
<feBlend mode="normal" in="SourceGraphic" in2="effect1_dropShadow_1_3" result="shape"/>
</filter>
</defs>
</svg>
